<?xml version="1.0" encoding="utf-8"?>
<!-- Generator: Adobe Illustrator 17.0.0, SVG Export Plug-In . SVG Version: 6.00 Build 0)  -->
<!DOCTYPE svg PUBLIC "-//W3C//DTD SVG 1.1//EN" "http://www.w3.org/Graphics/SVG/1.1/DTD/svg11.dtd">
<svg version="1.1" id="Layer_1" xmlns="http://www.w3.org/2000/svg" xmlns:xlink="http://www.w3.org/1999/xlink" x="0px" y="0px"
	 width="20px" height="20px" viewBox="0 0 20 20" enable-background="new 0 0 20 20" xml:space="preserve">
<g>
	<g>
		<defs>
			<rect id="SVGID_1_" x="0" y="0" width="20" height="20"/>
		</defs>
		<clipPath id="SVGID_2_">
			<use xlink:href="#SVGID_1_"  overflow="visible"/>
		</clipPath>
		<g id="flag_1_" clip-path="url(#SVGID_2_)">
			<rect id="rect551_1_" x="-4.533" y="0.044" fill="#FFFFFF" width="29.331" height="19.911"/>
			<rect id="rect552_1_" x="-4.533" y="14.256" fill="#118A43" width="29.331" height="5.744"/>
			<rect id="rect553_1_" x="-4.609" y="7.243" fill="#C33A44" width="29.331" height="5.744"/>
			<rect id="rect554_1_" x="-4.533" y="-0.082" fill="#010101" width="29.331" height="6.253"/>
			<path id="path565_1_" fill="#FFFFFF" stroke="#010101" stroke-width="0.0422" d="M6.196,17.042
				c1.483-2.76,6.453-11.9,6.404-11.927c-0.813-0.477,0.657-1.21,1.737-2.928c-0.769,1.847-0.687,3.57-1.477,3.074
				C11.547,7.74,7.488,15.316,6.479,17.187C6.372,17.13,6.341,17.107,6.196,17.042L6.196,17.042z"/>
			<path id="path568_1_" fill="#FFFFFF" stroke="#010101" stroke-width="0.0422" d="M13.633,17.15
				C12.15,14.391,7.18,5.25,7.229,5.224c0.813-0.477-0.657-1.21-1.737-2.928C6.261,4.142,6.18,5.866,6.969,5.37
				c1.313,2.478,5.372,10.054,6.381,11.926C13.458,17.238,13.489,17.215,13.633,17.15L13.633,17.15z"/>
			<path id="path555_1_" fill="#C33A44" stroke="#010101" stroke-width="0.0444" d="M9.864,3.337c4.671,3.293,4.595,11.257,0,14.014
				C5.576,14.442,4.963,6.554,9.864,3.337z"/>
			<path id="path557_1_" fill="#FFFFFC" d="M10.478,10.192c0,0.486-0.256,0.881-0.573,0.882c-0.317,0.001-0.575-0.393-0.575-0.879
				c0-0.001,0-0.002,0-0.003c0-0.486,0.256-0.881,0.573-0.882c0.317-0.001,0.575,0.393,0.575,0.879
				C10.478,10.19,10.478,10.191,10.478,10.192z"/>
			<path id="path558_1_" fill="#FFFFFF" stroke="#010101" stroke-width="0.0146" d="M9.835,3.644c1.314,1.271,1.292,4.345,0,5.409
				C8.629,7.929,8.457,4.885,9.835,3.644z"/>
			<path id="path559_1_" fill="#FFFFFF" stroke="#010101" stroke-width="0.0146" d="M9.835,11.608c1.314,1.271,1.292,4.345,0,5.409
				C8.629,15.894,8.457,12.85,9.835,11.608L9.835,11.608z"/>
			<rect id="rect560_1_" x="9.558" y="3.644" fill="#C33A44" width="0.536" height="5.514"/>
			<rect id="rect561_1_" x="9.635" y="11.532" fill="#C33A44" width="0.536" height="5.514"/>
			<path id="path562_1_" fill="#010101" stroke="#010101" stroke-width="0.0123" d="M7.003,7.09c0.797,1.484,0.784,5.072,0,6.315
				C6.272,12.093,6.167,8.539,7.003,7.09z"/>
			<path id="path563_1_" fill="#010101" stroke="#010101" stroke-width="0.0123" d="M12.823,7.166c0.797,1.484,0.784,5.072,0,6.315
				C12.092,12.17,11.987,8.616,12.823,7.166L12.823,7.166z"/>
		</g>
	</g>
</g>
</svg>
