<?xml version="1.0" encoding="utf-8"?>
<!-- Generator: Adobe Illustrator 17.0.0, SVG Export Plug-In . SVG Version: 6.00 Build 0)  -->
<!DOCTYPE svg PUBLIC "-//W3C//DTD SVG 1.1//EN" "http://www.w3.org/Graphics/SVG/1.1/DTD/svg11.dtd">
<svg version="1.1" id="Layer_1" xmlns="http://www.w3.org/2000/svg" xmlns:xlink="http://www.w3.org/1999/xlink" x="0px" y="0px"
	 width="20px" height="20px" viewBox="0 0 20 20" enable-background="new 0 0 20 20" xml:space="preserve">
<rect x="0" y="0" fill="none" width="20" height="20"/>
<g id="flag_1_" transform="matrix(1.0321 0 0 1.0321 -256 -.0000039058)">
	<rect id="rect1242_1_" x="248.038" y="0" fill="#4194D0" width="19.378" height="9.689"/>
	<rect id="rect1243_1_" x="248.038" y="14.534" fill="#239045" width="19.378" height="4.845"/>
	<rect id="rect1244_1_" x="248.038" y="9.689" fill="#ECE71D" width="19.378" height="4.845"/>
	<polygon id="polygon1249_1_" fill="#FEDA00" points="264.742,6.744 263.335,5.969 264.171,7.34 263.013,6.226 263.466,7.768 
		262.635,6.393 262.674,7.999 262.228,6.455 261.85,8.017 261.818,6.41 261.048,7.821 261.434,6.261 260.325,7.424 261.101,6.017 
		259.73,6.853 260.843,5.696 259.301,6.148 260.677,5.318 259.071,5.356 260.614,4.91 259.053,4.532 260.659,4.5 259.249,3.731 
		260.808,4.116 259.646,3.007 261.053,3.783 260.216,2.412 261.374,3.525 260.921,1.984 261.752,3.359 261.713,1.753 262.159,3.296 
		262.538,1.735 262.569,3.341 263.339,1.931 262.953,3.491 264.062,2.328 263.286,3.735 264.658,2.898 263.544,4.056 265.086,3.604 
		263.711,4.434 265.316,4.395 263.773,4.842 265.334,5.22 263.728,5.251 265.138,6.021 263.579,5.636 	"/>
	<path id="path1251_1_" fill="#4391CE" d="M263.419,4.876c0,0.677-0.549,1.225-1.225,1.225c-0.677,0-1.225-0.549-1.225-1.225
		s0.549-1.225,1.225-1.225C262.87,3.651,263.419,4.199,263.419,4.876z"/>
	<path id="path1250_1_" fill="#FED900" d="M263.179,4.876c0,0.552-0.441,0.999-0.985,0.999c-0.544,0-0.985-0.447-0.985-0.999
		s0.441-0.999,0.985-0.999C262.738,3.877,263.179,4.324,263.179,4.876z"/>
</g>
</svg>
