<?xml version="1.0" encoding="utf-8"?>
<!-- Generator: Adobe Illustrator 17.0.0, SVG Export Plug-In . SVG Version: 6.00 Build 0)  -->
<!DOCTYPE svg PUBLIC "-//W3C//DTD SVG 1.1//EN" "http://www.w3.org/Graphics/SVG/1.1/DTD/svg11.dtd">
<svg version="1.1" id="Layer_1" xmlns="http://www.w3.org/2000/svg" xmlns:xlink="http://www.w3.org/1999/xlink" x="0px" y="0px"
	 width="20px" height="20px" viewBox="0 0 20 20" enable-background="new 0 0 20 20" xml:space="preserve">
<g>
	<polygon fill="#4990CD" points="19.987,8.661 19.987,19.987 2.998,19.987 2.997,19.988 20.013,19.988 20.013,8.644 	"/>
	<polygon fill="#4990CD" points="19.987,19.987 19.987,8.661 2.998,19.987 	"/>
	<polygon fill="#119A48" points="0.038,12.458 0.038,0.013 0.013,0.013 0.013,12.475 	"/>
	<polygon fill="#119A48" points="18.705,0.013 0.038,0.013 0.038,12.458 	"/>
	<polygon fill="#010101" points="19.987,7.16 20.013,7.143 20.013,3.893 19.987,3.91 	"/>
	<polygon fill="#010101" points="0.038,19.987 0.038,19.988 0.747,19.988 0.747,19.988 0.747,19.987 	"/>
	<polygon fill="#010101" points="0.013,17.226 0.013,19.987 0.038,19.987 0.038,17.21 	"/>
	<polygon fill="#010101" points="19.987,0.658 19.987,3.91 20.013,3.893 20.013,0.641 	"/>
	<polygon fill="#010101" points="0.038,13.958 0.013,13.975 0.013,17.226 0.038,17.21 	"/>
	<polygon fill="#010101" points="0.038,13.958 0.038,17.21 0.038,19.987 0.747,19.987 19.987,7.16 19.987,3.91 19.987,0.658 	"/>
	<polygon fill="#F6EB16" points="0.038,12.458 0.013,12.475 0.013,13.015 0.038,12.998 	"/>
	<polygon fill="#F6EB16" points="0.038,12.998 19.174,0.013 18.705,0.013 0.038,12.458 	"/>
	<polygon fill="#F6EB16" points="20.013,0.641 20.013,0.013 19.987,0.013 19.987,0.658 	"/>
	<polygon fill="#F6EB16" points="0.038,12.998 0.013,13.015 0.013,13.975 0.038,13.958 	"/>
	<polygon fill="#F6EB16" points="0.038,13.958 19.987,0.658 19.987,0.013 19.174,0.013 0.038,12.998 	"/>
	<rect x="2.763" y="19.753" fill="#F6EB16" width="0.001" height="0.469"/>
	<polygon fill="#F6EB16" points="19.987,8.141 19.987,8.661 20.013,8.644 20.013,8.123 	"/>
	<polygon fill="#F6EB16" points="2.529,19.987 2.998,19.987 19.987,8.661 19.987,8.141 	"/>
	<rect x="1.638" y="19.096" fill="#F6EB16" width="0.001" height="1.782"/>
	<polygon fill="#F6EB16" points="19.987,8.141 20.013,8.123 20.013,7.143 19.987,7.16 	"/>
	<polygon fill="#F6EB16" points="19.987,7.16 0.747,19.987 2.529,19.987 19.987,8.141 	"/>
</g>
</svg>
