<?xml version="1.0" encoding="utf-8"?>
<!-- Generator: Adobe Illustrator 17.0.0, SVG Export Plug-In . SVG Version: 6.00 Build 0)  -->
<!DOCTYPE svg PUBLIC "-//W3C//DTD SVG 1.1//EN" "http://www.w3.org/Graphics/SVG/1.1/DTD/svg11.dtd">
<svg version="1.1" id="Layer_1" xmlns="http://www.w3.org/2000/svg" xmlns:xlink="http://www.w3.org/1999/xlink" x="0px" y="0px"
	 width="20px" height="20px" viewBox="0 0 20 20" enable-background="new 0 0 20 20" xml:space="preserve">
<rect x="0" y="0" fill="none" width="20" height="20"/>
<g id="flag_1_" transform="matrix(1.0321 0 0 1.0321 -128 -.00020625)">
	<rect id="rect585_1_" x="124.019" y="12.92" fill="#FEE600" width="19.378" height="3.229"/>
	<rect id="rect586_1_" x="124.019" y="9.689" fill="#010101" width="19.378" height="3.229"/>
	<rect id="rect587_1_" x="124.019" y="6.46" fill="#DD3D26" width="19.378" height="3.229"/>
	<rect id="rect588_1_" x="124.019" y="3.231" fill="#FEE600" width="19.378" height="3.229"/>
	<rect id="rect589_1_" x="124.019" y="0" fill="#010101" width="19.378" height="3.229"/>
	<g id="g568_1_" transform="matrix(.67156 0 0 .67156 106.78 93.699)">
		<path id="path567_1_" fill="#FFFEFE" stroke="#010101" stroke-width="0.0391" d="M44.59-125.097c0,2.481-2.011,4.492-4.492,4.492
			s-4.492-2.011-4.492-4.492s2.011-4.492,4.492-4.492S44.59-127.578,44.59-125.097z"/>
		<path id="path556_1_" fill="#DE3726" stroke="#010101" stroke-width="0.0391" d="M39.305-128.54l-0.292-0.537
			c0.113-0.113,0.302-0.2,0.604-0.2c0,0.02-0.031,0.588-0.031,0.588L39.305-128.54L39.305-128.54z"/>
		<path id="path557_1_" fill="#FEE600" stroke="#010101" stroke-width="0.0391" d="M39.586-128.683l0.041-0.593
			c0,0,0.604-0.036,0.931,0.358c0.005-0.005-0.322,0.46-0.322,0.46L39.586-128.683L39.586-128.683z"/>
		<path id="path558_1_" fill="#DE3726" stroke="#010101" stroke-width="0.0391" d="M40.246-128.463l0.297-0.46
			c0.2,0.21,0.281,0.358,0.312,0.583c0.005,0.005-0.471,0.118-0.471,0.113S40.251-128.458,40.246-128.463z"/>
		<path id="path565_1_" fill="#010101" stroke="#010101" stroke-width="0.0488" stroke-linecap="round" stroke-linejoin="round" d="
			M39.453-120.861c0,0,0.558-0.64,1.642-0.501c-0.164-0.266-0.691-0.235-0.691-0.235s-0.164-1.243-0.036-1.305
			c0.128-0.061,0.67,0.005,0.67,0.005c0.072,0,0.194-0.194,0.097-0.317c-0.097-0.123-0.384-0.593-0.266-0.686
			c0.118-0.092,0.757,0.051,0.757,0.051l-1.806-2.313c0,0-0.184-0.87,0.184-1.289c0.445-0.368,0.399-0.767,0.384-0.762
			c-0.061-0.404-0.675-0.696-1.09-0.322c-0.246,0.297-0.082,0.522-0.082,0.522s-0.645,0.174-0.67,0.286
			c-0.026,0.113,0.727-0.02,0.727-0.02l-0.072,0.517c0,0-1.463,1.33-0.343,2.481c0.01-0.005,0.036-0.051,0.036-0.051
			s0.394,0.486,0.808,0.593c0.389,0.399,0.353,0.338,0.353,0.338s0.077,0.629,0.005,0.752c-0.097-0.031-1.09-0.066-1.238-0.01
			c-0.133,0.041-0.645,0.015-0.517,0.849c0.097-0.225,0.184-0.425,0.184-0.425s-0.015,0.302,0.107,0.409
			c-0.02-0.317,0.118-0.532,0.118-0.532s0.026,0.348,0.102,0.399c0.077,0.051,0.077-0.563,0.501-0.512
			c0.425,0.051,0.732,0.036,0.732,0.036s0.143,1.202,0.097,1.315c-0.307-0.072-1.039,0.031-1.085,0.215
			c0.43-0.026,0.629,0.026,0.629,0.026S39.346-121.04,39.453-120.861L39.453-120.861z"/>
		<path id="path552_1_" fill="#9CA69C" stroke="#9CA69C" stroke-width="0.0488" stroke-linecap="round" stroke-linejoin="round" d="
			M39.626-127.421c0,0-1.065,1.174-0.605,2.072c0.024-0.125,0.014-0.204,0.029-0.199c-0.026-0.015,0.132,0.108,0.12,0.084
			c0.003-0.065-0.048-0.204-0.048-0.204c0.048,0.012,0.096,0.024,0.144,0.036c-0.028-0.052-0.056-0.104-0.084-0.156
			c0.068,0.008,0.136,0.016,0.204,0.024c0,0-0.072-0.192-0.048-0.192c0.024,0,0.168,0.012,0.168,0.012
			C39.203-126.488,39.488-126.939,39.626-127.421L39.626-127.421z"/>
		<path id="path554_1_" fill="#9CA69C" stroke="#9CA69C" stroke-width="0.0391" d="M39.995-128.428c0,0,0.056,0.404-0.164,0.522
			c-0.036,0.026-0.174,0.072-0.153,0.154c0.026,0.113,0.087,0.092,0.174,0.072C40.082-127.722,40.348-128.213,39.995-128.428
			L39.995-128.428z"/>
		<path id="path555_1_" fill="#FFFFFF" d="M39.602-128.08c0,0.048-0.039,0.087-0.087,0.087s-0.087-0.039-0.087-0.087
			s0.039-0.087,0.087-0.087C39.563-128.167,39.602-128.128,39.602-128.08z"/>
		<path id="path559_1_" fill="#DE3726" stroke="#010101" stroke-width="0.0391" d="M39.259-127.742
			c-0.056,0.046-0.353,0.353-0.061,0.466c0.302-0.082,0.22-0.138,0.287-0.205C39.486-127.619,39.334-127.655,39.259-127.742
			L39.259-127.742z"/>
		<path id="path560_1_" fill="#9CA69C" stroke="#9CA69C" stroke-width="0.0488" stroke-linecap="round" stroke-linejoin="round" d="
			M39.903-124.841c-0.015,0.067-0.082,0.312,0.01,0.501c0.256-0.107,0.373-0.077,0.46-0.02
			C40.164-124.529,40.082-124.601,39.903-124.841z"/>
		<path id="path561_1_" fill="#FFFFFF" stroke="#FFFFFF" stroke-width="0.0488" stroke-linecap="round" stroke-linejoin="round" d="
			M40.344-123.68l0.015,0.573c0,0,0.2,0.036,0.292,0C40.743-123.142,40.645-123.506,40.344-123.68z"/>
		<path id="path564_1_" fill="#9CA69C" stroke="#010101" stroke-width="0.0391" d="M41.791-123.608c0,0-0.368-0.89-1.31-1.115
			c-0.941-0.225-0.819-1.228-0.742-1.289c0.041-0.087,0.072-0.22,0.343-0.092c0.271,0.128,1.52,0.757,1.699,0.788
			C41.96-125.286,41.807-123.588,41.791-123.608z"/>
		<path id="path563_1_" fill="#DE3726" stroke="#010101" stroke-width="0.0488" stroke-linejoin="round" d="M40.896-124.729
			c-0.015,0.01,1.259,0.752,0.875,1.392c0.363-0.24,0.246-0.66,0.246-0.66s0.297,0.773-0.425,1.151
			c0.077,0.067,0.128,0.051,0.128,0.051l-0.123,0.123c0,0-0.056,0.092,0.43-0.143c-0.133,0.107-0.143,0.184-0.143,0.184
			s0.036,0.102,0.353-0.174c-0.256,0.276-0.312,0.42-0.312,0.414c0.691-0.061,2.195-2.307-0.476-2.973
			c0.143,0.148,0.123,0.128,0.123,0.128L40.896-124.729L40.896-124.729z"/>
		<path id="path562_1_" fill="#FFFFFF" stroke="#010101" stroke-width="0.0488" stroke-linecap="round" stroke-linejoin="round" d="
			M40.952-124.948c0.174,0.123,0.235,0.164,0.256,0.225c-0.159-0.036-0.302-0.026-0.302-0.026s-0.343-0.327-0.404-0.353
			c-0.046,0-0.312-0.169-0.312-0.169c-0.133-0.067-0.256-0.527,0.235-0.394c0.506,0.24,0.578,0.261,0.578,0.261
			c0.201,0.063,0.402,0.126,0.604,0.189c0.116,0.13,0.232,0.259,0.348,0.389c0,0-0.619-0.307-0.696-0.312
			c0.169,0.138,0.266,0.327,0.266,0.327C41.329-124.867,41.159-124.918,40.952-124.948L40.952-124.948z"/>
		<path id="path566_1_" fill="none" stroke="#FFFFFF" stroke-width="0.0488" stroke-linecap="round" d="M38.543-127.696
			c0,0,0.593-0.143,0.665-0.123"/>
	</g>
	<rect id="rect584_1_" x="124.019" y="16.149" fill="#DD3D26" width="19.378" height="3.229"/>
</g>
</svg>
